<svg xmlns="http://www.w3.org/2000/svg" width="620" height="360" viewBox="0 0 620 360" fill="none">
  <!-- Wing skeleton: humerus, radius/ulna, carpometacarpus, alula. -->
  <g stroke="#2B2418" stroke-width="1.7" stroke-linejoin="round" stroke-linecap="round" fill="#F6F1E6" fill-opacity="0.55">
    <path d="M40 214c14-22 44-30 70-20 24 9 40 26 62 30 20 4 30 16 26 30-5 16-26 20-46 12-24-9-40-28-64-34-26-6-42-4-48-18Z"/>
    <path d="M196 250c46-16 96-40 140-70 20-13 40-20 56-18 14 2 20 12 14 22-8 14-30 24-52 36-46 24-96 46-142 58-16 4-24-2-22-12 1-8 4-12 6-16Z"/>
    <path d="M204 274c48-8 100-26 148-52 22-12 44-18 58-14 12 4 14 14 6 22-12 12-34 22-58 32-48 20-98 34-146 40-14 2-20-4-18-14 1-7 5-12 10-14Z"/>
    <path d="M400 172c34-16 68-34 96-54 14-10 28-14 38-9 8 5 8 15 0 23-14 14-38 30-64 44-20 11-40 20-58 26-10 3-16-2-16-11 0-8 2-14 4-19Z"/>
    <path d="M470 130c22-6 44-16 62-28 10-7 20-8 25-2 4 6 1 14-8 21-14 11-34 21-54 28-9 3-16 1-18-5-2-6 1-11 -7-14Z" transform="translate(28 -22)"/>
  </g>
  <g stroke="#2B2418" stroke-width="0.9" opacity="0.5" stroke-dasharray="3 5">
    <path d="M52 208 570 74"/>
  </g>
  <g fill="#2B2418" opacity="0.85">
    <circle cx="66" cy="205" r="3"/><circle cx="196" cy="252" r="3"/>
    <circle cx="398" cy="176" r="3"/><circle cx="556" cy="86" r="3"/>
  </g>
</svg>
